<?xml version="1.0" encoding="utf-8"?>
<!-- Generator: Adobe Illustrator 21.1.0, SVG Export Plug-In . SVG Version: 6.00 Build 0)  -->
<svg version="1.1" id="Layer_1" xmlns="http://www.w3.org/2000/svg" xmlns:xlink="http://www.w3.org/1999/xlink" x="0px" y="0px"
	 viewBox="0 0 28 28" style="enable-background:new 0 0 28 28;" xml:space="preserve">
<style type="text/css">
	.st0{fill:#C8C8C8;}
	.st1{fill:#FFFFFF;}
</style>
<g>
	<g>
		<path class="st0" d="M14.2,1.3C7.3,1.3,1.7,6.9,1.7,13.8s5.6,12.5,12.5,12.5s12.5-5.6,12.5-12.5S21.1,1.3,14.2,1.3z M16.1,18.4
			l-2-3.1l-2,3.1H9l3.6-5.1L9.1,8.5h3.2l1.8,2.7l1.8-2.7H19l-3.4,4.7l3.7,5.2H16.1z"/>
	</g>
	<polygon class="st1" points="19,8.5 15.9,8.5 14.1,11.2 12.3,8.5 9.1,8.5 12.5,13.3 9,18.4 12,18.4 14.1,15.3 16.1,18.4 19.3,18.4 
		15.6,13.2 	"/>
</g>
</svg>
